<?xml version="1.0" encoding="UTF-8"?>
<svg width="30px" height="27px" viewBox="0 0 30 27" version="1.1" xmlns="http://www.w3.org/2000/svg" xmlns:xlink="http://www.w3.org/1999/xlink">
    <!-- Generator: Sketch 50 (54983) - http://www.bohemiancoding.com/sketch -->
    <title>Path 20</title>
    <desc>Created with Sketch.</desc>
    <defs></defs>
    <g id="Page-1" stroke="none" stroke-width="1" fill="none" fill-rule="evenodd">
        <g id="Salt-Story-Desktop" transform="translate(-247.000000, -1149.000000)" stroke="#E2A330">
            <g id="text" transform="translate(246.000000, 1024.000000)">
                <g id="Group" transform="translate(0.000000, 126.000000)">
                    <path d="M2.91037756,26 C0.0507245905,18.050006 3.66685601,5.60571251 17.4862166,6.10443937 C17.4862166,3.89915957 17.4862166,2.43573507 17.4862166,1.71416585 C17.4862166,0.859420422 17.3709568,0.256579828 17.8017121,0.040124001 C18.0888823,-0.104179884 18.6110968,0.140752299 19.3683556,0.774920549 L29.0458776,8.73185777 C29.637166,9.09258115 29.9537495,9.53192367 29.995628,10.0498853 C30.0375066,10.567847 29.7785244,11.0372768 29.2186815,11.4581748 L19.9198182,18.9705762 C18.8580746,19.8751856 18.1966103,20.2887873 17.9354254,20.2113815 C17.6742405,20.1339757 17.5620575,19.7203739 17.5988766,18.9705762 L17.5988766,14.5573939 C8.61833078,14.5573939 3.72216444,18.3715959 2.91037756,26 Z" id="Path-20"></path>
                </g>
            </g>
        </g>
    </g>
</svg>