<svg id="Layer_1" data-name="Layer 1" xmlns="http://www.w3.org/2000/svg" viewBox="0 0 841.89 280.26"><defs><style>.cls-1{isolation:isolate;}.cls-2{fill:#fff;}</style></defs><title>logo-light</title><g class="cls-1"><g class="cls-1"><path class="cls-2" d="M157.12,174.92l-38.69-42.35L94.2,150.46v24.46H80.86V94.44H94.2v41.69l56.36-41.69h19.23L128.66,124.9l45.58,50Z"/></g><g class="cls-1"><path class="cls-2" d="M274.83,166.58c-8.9,6.67-21.35,10.67-35.35,10.67s-26.79-4.11-35.57-10.78c-10.79-8.11-16.23-18.78-16.23-31.9,0-12.9,5.55-23.57,16.45-31.79,9-6.78,21.56-10.9,35.35-10.9s26.34,4.12,35.23,10.9c10.79,8.22,16.35,19,16.35,31.79C291.06,147.69,285.61,158.47,274.83,166.58Zm-9.67-54.91c-6.45-4.67-15.57-7.56-25.68-7.56-22.46,0-37.91,12.9-37.91,30.46,0,18.12,14.79,30.46,37.91,30.46s37.68-12.45,37.68-30.46C277.16,125.23,273.16,117.56,265.16,111.67Z"/></g><g class="cls-1"><path class="cls-2" d="M357.2,104.22c-16.68,0-25.46,4.23-25.46,10.9,0,3.66,2.33,6.11,7,7.78,8.78,3.11,22,2.11,38.35,4.22,20,2.56,29.57,9.45,29.57,22.9,0,16.9-15.34,26.79-43.91,26.79-20.45,0-36.23-4.34-47.91-13.56l7.34-9.67a75.33,75.33,0,0,0,40.68,11.56c19.12,0,29.35-5.56,29.35-14.23,0-11.45-13.67-11.45-37.35-13-24.79-1.66-37.24-5.55-37.24-21,0-15,14.45-24.45,40.58-24.45,17.34,0,31.9,4,43.57,11.89l-8.11,9C381.65,107.22,369.87,104.22,357.2,104.22Z"/></g><g class="cls-1"><path class="cls-2" d="M516.48,174.92V139.24H452v35.68H438.67V94.44H452v32.68h64.47V94.44h13.34v80.48Z"/></g><g class="cls-1"><path class="cls-2" d="M607.85,143.13v31.79H594.52V143.13l-44-48.69h16.56L601.3,132l34-37.57h16.56Z"/></g><g class="cls-1"><path class="cls-2" d="M706.45,104.22c-16.68,0-25.46,4.23-25.46,10.9,0,3.66,2.33,6.11,7,7.78,8.78,3.11,22,2.11,38.35,4.22,20,2.56,29.57,9.45,29.57,22.9,0,16.9-15.34,26.79-43.91,26.79-20.45,0-36.23-4.34-47.91-13.56l7.34-9.67a75.34,75.34,0,0,0,40.69,11.56c19.11,0,29.34-5.56,29.34-14.23,0-11.45-13.67-11.45-37.35-13-24.79-1.66-37.24-5.55-37.24-21,0-15,14.45-24.45,40.58-24.45,17.34,0,31.9,4,43.57,11.89l-8.11,9C730.9,107.22,719.12,104.22,706.45,104.22Z"/></g></g></svg>